<?xml version="1.0" encoding="UTF-8"?>
<svg width="24px" height="24px" viewBox="0 0 24 24" version="1.1" xmlns="http://www.w3.org/2000/svg" xmlns:xlink="http://www.w3.org/1999/xlink">
    <!-- Generator: Sketch 49.3 (51167) - http://www.bohemiancoding.com/sketch -->
    <title>folder-github</title>
    <desc>Created with Sketch.</desc>
    <defs></defs>
    <g id="Page-1" stroke="none" stroke-width="1" fill="none" fill-rule="evenodd">
        <path d="M10,4 L12,6 L20,6 C21.1,6 22,6.89 22,8 L22,18 C22,19.097 21.097,20 20,20 L4,20 C2.903,20 2,19.097 2,18 L2,6 C2,4.89 2.89,4 4,4 L10,4 Z M11.9506591,7.8247 C9.16203032,7.8247 6.9014,10.0853303 6.9014,12.8739591 C6.9014,15.1057338 8.35051939,16.9991874 10.3551123,17.6707776 C10.6075752,17.7111696 10.6883666,17.554646 10.6883666,17.4183147 L10.6883666,16.5650087 C9.28969081,16.8679672 8.99178407,15.8884113 8.99178407,15.8884113 C8.75952083,15.3026939 8.43131824,15.1461703 8.43131824,15.1461703 C7.9718361,14.8331157 8.46666588,14.8432118 8.46666588,14.8432118 C8.97159179,14.8785594 9.23921753,15.3632856 9.23921753,15.3632856 C9.67849996,16.1307855 10.4207409,15.9035592 10.7085441,15.7823758 C10.7539878,15.4541732 10.8852674,15.2320061 11.0266505,15.1057709 C9.90574856,14.9795357 8.72920269,14.5453051 8.72920269,12.6215556 C8.72920269,12.0610898 8.92107394,11.6117186 9.24927653,11.2531905 C9.19878096,11.1269553 9.02205764,10.6018371 9.29977209,9.92018786 C9.29977209,9.92018786 9.72391402,9.78385653 10.6883444,10.4352173 C11.0872348,10.3241301 11.5214431,10.2685902 11.9506963,10.2685902 C12.3799494,10.2685902 12.8141058,10.3241301 13.2130482,10.4352173 C14.1774934,9.78386396 14.6016205,9.92018786 14.6016205,9.92018786 C14.8793275,10.6018371 14.7026042,11.1269702 14.652116,11.2531905 C14.9803186,11.6116889 15.1721899,12.0611046 15.1721899,12.6215556 C15.1721899,14.5503717 13.9906665,14.9744988 12.8646385,15.1007191 C13.0464136,15.2572502 13.2130408,15.565253 13.2130408,16.0348536 L13.2130408,17.4183741 C13.2130408,17.5547054 13.2938322,17.7162808 13.5513395,17.670837 C15.5559324,16.9942322 17,15.1057932 17,12.8740186 C17,11.5348718 16.468026,10.250573 15.5211062,9.30365319 C14.5741865,8.35673342 13.2898876,7.82475943 11.9507409,7.82475943 L11.9506591,7.8247 Z" id="Combined-Shape" fill="#546E7A" fill-rule="nonzero"></path>
    </g>
</svg>