<?xml version="1.0" encoding="UTF-8"?>
<svg width="24px" height="24px" viewBox="0 0 24 24" version="1.1" xmlns="http://www.w3.org/2000/svg" xmlns:xlink="http://www.w3.org/1999/xlink">
    <!-- Generator: Sketch 49.3 (51167) - http://www.bohemiancoding.com/sketch -->
    <title>folder-circle-ci</title>
    <desc>Created with Sketch.</desc>
    <defs></defs>
    <g id="Page-1" stroke="none" stroke-width="1" fill="none" fill-rule="evenodd">
        <path d="M10,4 L4,4 C2.89,4 2,4.89 2,6 L2,18 C2,19.097 2.903,20 4,20 L20,20 C21.097,20 22,19.097 22,18 L22,8 C22,6.89 21.1,6 20,6 L12,6 L10,4 Z" id="Folder" fill="#546E7A" fill-rule="nonzero"></path>
        <path d="M12.0002661,14.2843799 C11.3327846,14.2843799 10.7916839,13.7432792 10.7916839,13.0757976 C10.7916839,12.4083161 11.3327846,11.8672154 12.0002661,11.8672154 C12.6677477,11.8672154 13.2088484,12.4083161 13.2088484,13.0757976 C13.2088484,13.7432792 12.6677477,14.2843799 12.0002661,14.2843799 Z M11.9242823,8 L11.9242823,8.00016197 C14.7274846,8.00016197 17,10.2727574 17,13.0758796 C17,15.8789219 14.7275646,18.1515973 11.9242823,18.1515973 C9.55926666,18.1515973 7.57229036,16.5337423 7.00853058,14.3446891 C7.00351605,14.3254372 7,14.3052103 7,14.2843419 C7,14.1508824 7.10808495,14.0426359 7.24170446,14.0426455 L9.28846801,14.0426455 C9.38281506,14.0427791 9.46839801,14.0979826 9.50742532,14.1838793 C9.50742532,14.1838793 9.51040028,14.1894934 9.51153244,14.1924047 C9.93356245,15.1026506 10.854846,15.7345559 11.924138,15.7345559 C13.3925049,15.7345559 14.5825711,14.5443297 14.5825711,13.0758028 C14.5825711,11.607276 13.3921849,10.4170498 11.923818,10.4170498 C10.8545661,10.4170498 9.93312254,11.0487551 9.51121251,11.9592009 C9.51024192,11.9619508 9.50710538,11.9677259 9.50710538,11.9677259 C9.46892553,12.0510402 9.38569527,12.1089598 9.28814808,12.1089598 L7.24170446,12.1089598 C7.10824492,12.1089598 7,12.0007149 7,11.8672553 C7,11.8463878 7.00367762,11.8261585 7.00853058,11.8069082 C7.57241034,9.617895 9.55938664,8 11.9242823,8 Z" id="Combined-Shape" fill="#FAFAFA"></path>
    </g>
</svg>