<?xml version="1.0" encoding="UTF-8"?>
<svg width="24px" height="24px" viewBox="0 0 24 24" version="1.1" xmlns="http://www.w3.org/2000/svg" xmlns:xlink="http://www.w3.org/1999/xlink">
    <!-- Generator: Sketch 49.3 (51167) - http://www.bohemiancoding.com/sketch -->
    <title>folder-git</title>
    <desc>Created with Sketch.</desc>
    <defs></defs>
    <g id="Page-1" stroke="none" stroke-width="1" fill="none" fill-rule="evenodd">
        <path d="M10,4 L12,6 L20,6 C21.1,6 22,6.89 22,8 L22,18 C22,19.097 21.097,20 20,20 L4,20 C2.903,20 2,19.097 2,18 L2,6 C2,4.89 2.89,4 4,4 L10,4 Z M6.826766,12.2221449 C6.3921791,12.6512307 6.3921791,13.3443693 6.826766,13.7734551 L11.2221449,18.168834 C11.6512307,18.6034209 12.3443693,18.6034209 12.7734551,18.168834 L17.168834,13.7734551 C17.6034209,13.3443693 17.6034209,12.6512307 17.168834,12.2221449 L12.7734551,7.826766 C12.3443693,7.3921791 11.6512307,7.3921791 11.2221449,7.826766 L10.787558,8.2558518 L11.722745,9.1855377 C11.942789,9.1250256 12.1903385,9.14703 12.4268858,9.2350476 C12.9384881,9.4495905 13.2025409,10.0107027 13.0595123,10.522305 L14.473295,11.9360877 C14.5558115,11.89758 14.6493302,11.89758 14.74835,11.89758 C15.3518207,11.89758 15.84857,12.3943293 15.84857,12.9978 C15.84857,13.6012707 15.3518207,14.09802 14.74835,14.09802 C14.1448793,14.09802 13.64813,13.6012707 13.64813,12.9978 C13.64813,12.8987802 13.64813,12.8052615 13.6866377,12.722745 L12.54791,11.5730151 L12.54791,14.2465497 C12.877976,14.4335871 13.09802,14.7911586 13.09802,15.19824 C13.09802,15.8017107 12.6012707,16.29846 11.9978,16.29846 C11.3943293,16.29846 10.89758,15.8017107 10.89758,15.19824 C10.89758,14.7911586 11.117624,14.4335871 11.44769,14.2465497 L11.44769,11.1989403 C11.0186042,10.9513908 10.8040613,10.4397885 10.9360877,9.972195 L10.0064018,9.037008 L6.826766,12.2221449 Z" id="Combined-Shape" fill="#FF7043" fill-rule="nonzero"></path>
    </g>
</svg>