<?xml version="1.0" encoding="UTF-8"?>
<svg width="24px" height="24px" viewBox="0 0 24 24" version="1.1" xmlns="http://www.w3.org/2000/svg" xmlns:xlink="http://www.w3.org/1999/xlink">
    <!-- Generator: Sketch 49.3 (51167) - http://www.bohemiancoding.com/sketch -->
    <title>folder-node</title>
    <desc>Created with Sketch.</desc>
    <defs></defs>
    <g id="Page-1" stroke="none" stroke-width="1" fill="none" fill-rule="evenodd">
        <path d="M10,4 L12,6 L20,6 C21.1,6 22,6.89 22,8 L22,18 C22,19.097 21.097,20 20,20 L4,20 C2.903,20 2,19.097 2,18 L2,6 C2,4.89 2.89,4 4,4 L10,4 Z M12.24998,7.81250239 C12.0999803,7.81250239 11.9444251,7.8513912 11.8166475,7.92361328 L7.68332247,10.3124974 C7.41665633,10.4680526 7.24999,10.7569409 7.24999,11.0680514 L7.24999,15.8347086 C7.24999,16.1458191 7.41665633,16.4347074 7.68332247,16.5902626 L8.76665363,17.2124836 C9.29443036,17.4680386 9.47220778,17.4735942 9.71665173,17.4735942 C10.494428,17.4735942 10.9444271,17.0013729 10.9444271,16.1791523 L10.9444271,11.4736062 C10.9444271,11.4069396 10.8888716,11.3513842 10.8222051,11.3513842 L10.3055394,11.3513842 C10.2333174,11.3513842 10.1777619,11.4069396 10.1777619,11.4736062 L10.1777619,16.1791523 C10.1777619,16.5458183 9.7999849,16.9069286 9.19443056,16.6013737 L8.05554394,15.951375 C8.01665513,15.9235973 7.99443296,15.8791529 7.99443296,15.8347086 L7.99443296,11.0680514 C7.99443296,11.0180515 8.01665513,10.9736072 8.05554394,10.951385 L12.188869,8.56805643 C12.2222023,8.54583426 12.2777577,8.54583426 12.311091,8.56805643 L16.4444161,10.951385 C16.4833049,10.9736072 16.505527,11.0180515 16.505527,11.0680514 L16.505527,15.8347086 C16.505527,15.8791529 16.4833049,15.9235973 16.4444161,15.951375 L12.311091,18.3347036 C12.2777577,18.3569257 12.2222023,18.3569257 12.1833135,18.3347036 L11.1388711,17.7013715 C11.0944268,17.6847049 11.0499824,17.6791493 11.0222047,17.695816 C10.7277608,17.8624823 10.6722054,17.8958156 10.3999837,17.9791487 C10.3333172,18.0013709 10.2277618,18.0402597 10.4388725,18.1569261 L11.8166475,18.9735912 C11.9499806,19.0513688 12.0944248,19.0902576 12.24998,19.0902576 C12.4055352,19.0902576 12.5499794,19.0513688 12.6833125,18.9735912 L16.8166375,16.5902626 C17.0833037,16.4347074 17.24997,16.1458191 17.24997,15.8347086 L17.24997,11.0680514 C17.24997,10.7569409 17.0833037,10.4680526 16.8166375,10.3124974 L12.6833125,7.92361328 C12.5555349,7.8513912 12.4055352,7.81250239 12.24998,7.81250239 Z M13.3610889,11.2291622 C12.1833135,11.2291622 11.4777593,11.7236057 11.4777593,12.5569373 C11.4777593,13.45138 12.1777579,13.7124906 13.311089,13.8236015 C14.6610863,13.9569345 14.7666416,14.1569341 14.7666416,14.4236003 C14.7666416,14.8847105 14.3944202,15.0791545 13.5277552,15.0791545 C12.4277574,15.0791545 12.1944246,14.8069328 12.1110914,14.2624895 C12.0999803,14.206934 12.0499804,14.1624897 11.9888694,14.1624897 L11.4555371,14.1624897 C11.3888706,14.1624897 11.3388707,14.2124896 11.3388707,14.2847117 C11.3388707,14.9735992 11.7166477,15.8069308 13.5277552,15.8069308 C14.8333082,15.8069308 15.5833067,15.2902652 15.5833067,14.390267 C15.5833067,13.4958244 14.9833079,13.2624915 13.7110882,13.0902696 C12.4277574,12.9236033 12.2999799,12.8347146 12.2999799,12.5347152 C12.2999799,12.2847157 12.4110908,11.951383 13.3610889,11.951383 C14.1944206,11.951383 14.5221977,12.134716 14.6499752,12.706937 C14.6610863,12.7624925 14.7110862,12.8013813 14.7666416,12.8013813 L15.3055294,12.8013813 C15.3333072,12.8013813 15.3666404,12.7902702 15.3888626,12.7624925 C15.4110848,12.7402703 15.4277514,12.706937 15.4166403,12.6736038 C15.3388627,11.6847169 14.6833085,11.2291622 13.3610889,11.2291622 Z" id="Combined-Shape" fill="#8BC34A" fill-rule="nonzero"></path>
    </g>
</svg>