<?xml version="1.0" encoding="UTF-8"?>
<svg width="24px" height="24px" viewBox="0 0 24 24" version="1.1" xmlns="http://www.w3.org/2000/svg" xmlns:xlink="http://www.w3.org/1999/xlink">
    <!-- Generator: Sketch 49.3 (51167) - http://www.bohemiancoding.com/sketch -->
    <title>folder-lib</title>
    <desc>Created with Sketch.</desc>
    <defs></defs>
    <g id="Page-1" stroke="none" stroke-width="1" fill="none" fill-rule="evenodd">
        <path d="M10,4 L12,6 L20,6 C21.1,6 22,6.89 22,8 L22,18 C22,19.097 21.097,20 20,20 L4,20 C2.903,20 2,19.097 2,18 L2,6 C2,4.89 2.89,4 4,4 L10,4 Z M12.1525,10.7252771 C13.0431357,10.7252771 13.7651386,10.0032742 13.7651386,9.11263856 C13.7651386,8.22200288 13.0431357,7.5 12.1525,7.5 C11.2618643,7.5 10.5398614,8.22200288 10.5398614,9.11263856 C10.5398614,10.0032742 11.2618643,10.7252771 12.1525,10.7252771 Z M12.1525,12.6282347 C10.8838879,11.4509959 9.19591733,10.7252771 7.31450568,10.7252771 L7.31450568,16.6384425 C9.19599597,16.6384425 10.8838879,17.3641455 12.1525,18.5414 C13.4211121,17.3641613 15.1090827,16.6384425 16.9904943,16.6384425 L16.9904943,10.7252771 C15.109004,10.7252771 13.4211121,11.4509802 12.1525,12.6282347 Z" id="Combined-Shape" fill="#C0CA33" fill-rule="nonzero"></path>
    </g>
</svg>