<?xml version="1.0" encoding="UTF-8"?>
<svg width="418px" height="329px" viewBox="0 0 418 329" version="1.1" xmlns="http://www.w3.org/2000/svg" xmlns:xlink="http://www.w3.org/1999/xlink">
    <!-- Generator: Sketch 49.3 (51167) - http://www.bohemiancoding.com/sketch -->
    <title>markserv-readme-banner</title>
    <desc>Created with Sketch.</desc>
    <defs></defs>
    <g id="markserv-readme-banner" stroke="none" stroke-width="1" fill="none" fill-rule="evenodd">
        <g id="Markserv-Logo" transform="translate(90.000000, 0.000000)">
            <rect id="Logo-Background" fill="#34495E" x="0" y="0" width="238" height="237" rx="12"></rect>
            <path d="M193.782854,180.346363 L214,180.346363 L174.887091,225 L135.774183,180.346363 L156.587141,180.346363 L156.587141,87.9763979 L119.391427,136.231913 L82.1957136,87.9763979 L82.1957136,168.130669 L45,168.130669 L45,32 L82.1957136,32 L119.391427,80.2555154 L156.587141,32 L193.782854,32 L193.782854,180.346363 Z" id="Combined-Shape" fill="#FFFFFF"></path>
            <polygon id="Right-Block" fill="#1ABC9C" points="76 193 125.93382 193 154 224 103.856891 224"></polygon>
            <path d="M13,199.995481 C13,196.684268 15.6846273,194 18.9946343,194 L56.4406979,194 L84,225 L18.9922297,225 C15.6828126,225 13,222.316669 13,219.004519 L13,199.995481 Z" id="Left-Block" fill="#1ABC9C"></path>
        </g>
        <g id="Markserv-Word-Mark" transform="translate(2.000000, 268.000000)" fill="#409B93">
            <path d="M51.4292035,1 L55.0840708,1 C55.9542773,1 56.3893805,1.42753623 56.3893805,2.2826087 L59,60 L56.8244838,60 L54.2138643,2.88115942 L52.1253687,2.88115942 L32.4587021,54.1 C32.2846608,54.6130435 31.9075713,54.8695652 31.3274336,54.8695652 L27.6725664,54.8695652 C27.0924287,54.8695652 26.7153392,54.6130435 26.5412979,54.1 L6.87463127,2.88115942 L4.78613569,2.88115942 L2.17551622,60 L0,60 L2.61061947,2.2826087 C2.61061947,1.42753623 3.04572271,1 3.9159292,1 L7.57079646,1 C8.15093412,1 8.5280236,1.25652174 8.7020649,1.76956522 L25.3230088,44.9507246 C25.6710914,45.8628019 26.1787119,47.2024155 26.8458702,48.9695652 C27.5130285,50.736715 28.020649,52.0763285 28.3687316,52.9884058 L30.6312684,52.9884058 L33.7640118,44.7797101 L50.2979351,1.76956522 C50.4719764,1.25652174 50.8490659,1 51.4292035,1 Z" id="Fill-1"></path>
            <path d="M104.975221,38.4521739 L77.0247788,38.4521739 L69.2938053,60 L67,60 L88.0690265,1.76956522 C88.2389381,1.25652174 88.6070796,1 89.1734513,1 L92.8265487,1 C93.3929204,1 93.7610619,1.25652174 93.9309735,1.76956522 L115,60 L112.706195,60 L104.975221,38.4521739 Z M104.295575,36.5710145 L93.9309735,7.66956522 L92.2318584,2.88115942 L89.7681416,2.88115942 L88.0690265,7.66956522 L77.7044248,36.5710145 L104.295575,36.5710145 Z" id="Fill-2"></path>
            <path d="M165,60 L162.546067,60 L156.060674,41.260745 C154.191011,35.9885387 150.889888,33.3524355 146.157303,33.3524355 C138.152809,33.3524355 132.164045,33.2378223 128.191011,33.008596 L128.191011,60 L126,60 L126,0.687679083 C130.674157,0.229226361 137.130337,0 145.368539,0 C151.91236,0 156.455056,1.16045845 158.996629,3.48137536 C161.538202,5.80229226 162.808989,10.2005731 162.808989,16.6762178 C162.808989,21.9484241 161.947191,25.7593123 160.223596,28.1088825 C158.5,30.4584527 155.651685,31.9197708 151.678652,32.4928367 L151.678652,32.8366762 C154.483146,33.6962751 156.703371,36.4183381 158.339326,41.0028653 L165,60 Z M128.191011,31.3753582 L145.368539,31.3753582 C151.035955,31.260745 154.979775,30.1862464 157.2,28.1518625 C159.420225,26.1174785 160.530337,22.2922636 160.530337,16.6762178 C160.530337,10.9455587 159.420225,7.06303725 157.2,5.0286533 C154.979775,2.99426934 151.035955,1.97707736 145.368539,1.97707736 C137.889888,1.97707736 132.164045,2.03438395 128.191011,2.14899713 L128.191011,31.3753582 Z" id="Fill-3"></path>
            <path d="M190.492958,30.157971 L180.859155,30.157971 C180.971831,31.9251208 181.028169,34.3763285 181.028169,37.5115942 L181.028169,60 L179,60 L179,1 L181.028169,1 L181.028169,21.1797101 C181.028169,22.4908213 180.971831,24.8565217 180.859155,28.2768116 L190.492958,28.2768116 L211.028169,1 L213.56338,1 L194.042254,27.0797101 C193.422535,27.9347826 192.802817,28.6188406 192.183099,29.1318841 L192.183099,29.3028986 C193.197183,30.3289855 193.816901,30.9845411 194.042254,31.2695652 L215,60 L212.464789,60 L190.492958,30.157971 Z" id="Fill-4"></path>
            <path d="M249.253521,32.13518 L236.323944,30.336482 C232.267606,29.8796698 229.366197,28.4521317 227.619718,26.0538678 C225.873239,23.6556038 225,20.0296571 225,15.1760276 C225,11.6928347 225.323944,8.90913539 225.971831,6.82492979 C226.619718,4.74072419 227.774648,3.19898307 229.43662,2.19970641 C231.098592,1.20042975 232.859155,0.572312995 234.71831,0.31535614 C236.577465,0.0583992852 239.197183,-0.0415283806 242.577465,0.0155731427 C248.042254,0.129776189 253.309859,0.472385329 258.380282,1.04340056 L258.126761,2.67079397 C251.366197,2.21398179 246.183099,1.9855757 242.577465,1.9855757 C240.380282,1.9855757 238.732394,2.01412646 237.633803,2.07122798 C236.535211,2.1283295 235.267606,2.28535869 233.830986,2.54231555 C232.394366,2.7992724 231.352113,3.19898307 230.704225,3.74144754 C230.056338,4.28391201 229.408451,5.04050719 228.760563,6.01123309 C228.112676,6.98195898 227.676056,8.20964173 227.450704,9.69428134 C227.225352,11.1789209 227.112676,13.0061697 227.112676,15.1760276 C227.112676,19.5157433 227.816901,22.6706025 229.225352,24.6406051 C230.633803,26.6106076 233,27.824015 236.323944,28.2808272 L249.253521,30.0795251 C253.535211,30.5934389 256.56338,32.0209769 258.338028,34.3621394 C260.112676,36.7033018 261,40.4434516 261,45.5825887 C261,48.3234618 260.732394,50.6503489 260.197183,52.5632499 C259.661972,54.476151 258.957746,55.9893413 258.084507,57.102821 C257.211268,58.2163007 255.971831,59.0585482 254.366197,59.6295634 C252.760563,60.2005787 251.15493,60.5717386 249.549296,60.7430431 C247.943662,60.9143477 245.84507,61 243.253521,61 C237.056338,61 231.309859,60.6859416 226.014085,60.0578249 L226.267606,58.4304315 C232.126761,58.8872436 237.816901,59.087099 243.338028,59.0299974 C246.43662,58.9728959 248.859155,58.8015914 250.605634,58.5160837 C252.352113,58.2305761 253.901408,57.6167347 255.253521,56.6745596 C256.605634,55.7323845 257.549296,54.3762233 258.084507,52.6060761 C258.619718,50.8359289 258.887324,48.4947664 258.887324,45.5825887 C258.887324,40.9573653 258.169014,37.6740277 256.732394,35.732576 C255.295775,33.7911242 252.802817,32.5919922 249.253521,32.13518 Z" id="Fill-5"></path>
            <path d="M308.828283,58.1188406 L309,59.657971 C303.390572,59.8859903 294.976431,60 283.757576,60 C281.239057,60 279.149832,59.17343 277.489899,57.5202899 C275.829966,55.8671498 275,53.7864734 275,51.2782609 L275,9.72173913 C275,7.21352657 275.829966,5.13285024 277.489899,3.47971014 C279.149832,1.82657005 281.239057,1 283.757576,1 C294.976431,1 303.390572,1.11400966 309,1.34202899 L308.828283,2.88115942 L284.186869,2.88115942 C282.126263,2.88115942 280.43771,3.53671498 279.121212,4.84782609 C277.804714,6.1589372 277.146465,7.84057971 277.146465,9.89275362 L277.146465,27.5072464 L305.308081,27.5072464 L305.308081,29.3028986 L277.146465,29.3028986 L277.146465,51.1072464 C277.146465,53.1594203 277.804714,54.8410628 279.121212,56.1521739 C280.43771,57.463285 282.126263,58.1188406 284.186869,58.1188406 L308.828283,58.1188406 Z" id="Fill-6"></path>
            <path d="M361,60 L358.546067,60 L352.060674,41.260745 C350.191011,35.9885387 346.889888,33.3524355 342.157303,33.3524355 C334.152809,33.3524355 328.164045,33.2378223 324.191011,33.008596 L324.191011,60 L322,60 L322,0.687679083 C326.674157,0.229226361 333.130337,0 341.368539,0 C347.91236,0 352.455056,1.16045845 354.996629,3.48137536 C357.538202,5.80229226 358.808989,10.2005731 358.808989,16.6762178 C358.808989,21.9484241 357.947191,25.7593123 356.223596,28.1088825 C354.5,30.4584527 351.651685,31.9197708 347.678652,32.4928367 L347.678652,32.8366762 C350.483146,33.6962751 352.703371,36.4183381 354.339326,41.0028653 L361,60 Z M324.191011,31.3753582 L341.368539,31.3753582 C347.035955,31.260745 350.979775,30.1862464 353.2,28.1518625 C355.420225,26.1174785 356.530337,22.2922636 356.530337,16.6762178 C356.530337,10.9455587 355.420225,7.06303725 353.2,5.0286533 C350.979775,2.99426934 347.035955,1.97707736 341.368539,1.97707736 C333.889888,1.97707736 328.164045,2.03438395 324.191011,2.14899713 L324.191011,31.3753582 Z" id="Fill-7"></path>
            <path d="M414,1 L393.896296,59.2304348 C393.669136,59.7434783 393.3,60 392.788889,60 L389.211111,60 C388.7,60 388.330864,59.7434783 388.103704,59.2304348 L368,1 L370.3,1 L387.677778,51.7913043 C388.359259,53.6724638 389.069136,55.7816425 389.807407,58.1188406 L392.192593,58.1188406 C393.101235,55.268599 393.811111,53.1309179 394.322222,51.7057971 L411.7,1 L414,1 Z" id="Fill-8"></path>
        </g>
    </g>
</svg>